<?xml version="1.0" encoding="UTF-8" standalone="no"?>
<!-- Created with Inkscape (http://www.inkscape.org/) -->

<svg
   xmlns:dc="http://purl.org/dc/elements/1.1/"
   xmlns:cc="http://creativecommons.org/ns#"
   xmlns:rdf="http://www.w3.org/1999/02/22-rdf-syntax-ns#"
   xmlns:svg="http://www.w3.org/2000/svg"
   xmlns="http://www.w3.org/2000/svg"
   xmlns:sodipodi="http://sodipodi.sourceforge.net/DTD/sodipodi-0.dtd"
   xmlns:inkscape="http://www.inkscape.org/namespaces/inkscape"
   width="1024"
   height="1024"
   id="svg2"
   version="1.1"
   inkscape:version="0.48.2 r9819"
   sodipodi:docname="filecheck-icon.svg">
  <defs
     id="defs4"><inkscape:perspective
   sodipodi:type="inkscape:persp3d"
   inkscape:vp_x="-235 : 56.98236 : 1"
   inkscape:vp_y="0 : 849.0138 : 0"
   inkscape:vp_z="1684 : 254.98236 : 1"
   inkscape:persp3d-origin="460 : 326.084 : 1"
   id="perspective2982" />

	
</defs>
  <sodipodi:namedview
     id="base"
     pagecolor="#ffffff"
     bordercolor="#666666"
     borderopacity="1.0"
     inkscape:pageopacity="0.0"
     inkscape:pageshadow="2"
     inkscape:zoom="1"
     inkscape:cx="570.90038"
     inkscape:cy="483.97413"
     inkscape:document-units="px"
     inkscape:current-layer="layer1"
     showgrid="false"
     inkscape:window-width="2034"
     inkscape:window-height="1333"
     inkscape:window-x="2103"
     inkscape:window-y="22"
     inkscape:window-maximized="0" />
  <metadata
     id="metadata7">
    <rdf:RDF>
      <cc:Work
         rdf:about="">
        <dc:format>image/svg+xml</dc:format>
        <dc:type
           rdf:resource="http://purl.org/dc/dcmitype/StillImage" />
        <dc:title />
      </cc:Work>
    </rdf:RDF>
  </metadata>
  <g
     inkscape:label="Layer 1"
     inkscape:groupmode="layer"
     id="layer1">
    <g
       style="display:none"
       id="Layer_1"
       display="none"
       transform="matrix(6.734375,0,0,5.625,92,148)">
</g>
    <g
       style="display:none"
       id="Layer_2"
       display="none"
       transform="matrix(6.734375,0,0,5.625,92,148)">
</g>
    <g
       style="display:none"
       id="Layer_3"
       display="none"
       transform="matrix(6.734375,0,0,5.625,92,148)">
	<path
   style="fill:#ed1c24;display:inline"
   inkscape:connector-curvature="0"
   display="inline"
   d="M 0,0 V 128 H 128 V 0 H 0 z m 64,109.966 c -5.129,0 -9.287,-4.158 -9.287,-9.287 h 18.573 c 0,5.129 -4.158,9.287 -9.286,9.287 z M 101.221,98.377 H 26.778 v -7.132 c 0,0 2.937,-1.024 3.863,-1.485 1.135,-0.564 3.563,-1.649 4.309,-2.675 0.76,-1.045 1.332,-5.217 1.635,-6.984 0.46,-2.689 0.737,-8.276 0.966,-10.995 0.265,-3.151 0.664,-9.333 0.966,-12.481 0.215,-2.238 0.712,-6.718 1.188,-8.915 0.461,-2.125 1.451,-6.432 2.526,-8.321 0.845,-1.486 2.183,-3.692 4.606,-5.052 3.329,-1.868 7.429,-2.824 7.429,-2.824 0,-5.17 4.191,-9.361 9.361,-9.361 5.171,0 9.362,4.191 9.362,9.361 0,0 4.089,0.794 7.279,2.972 3.047,2.08 3.798,3.414 4.642,4.927 1.1,1.967 1.745,7.13 2.194,9.337 0.441,2.179 0.434,6.119 0.742,8.321 0.406,2.89 0.906,8.708 1.293,11.599 0.371,2.762 1.129,8.288 1.721,11.011 0.402,1.842 0.895,5.759 2.039,7.257 0.789,1.033 3.281,2.124 4.457,2.674 0.926,0.433 3.863,1.338 3.863,1.338 v 7.428 z"
   id="path3050" />

</g>
    <g
       style="display:none"
       id="Layer_4"
       display="none"
       transform="matrix(6.734375,0,0,5.625,92,148)">
</g>
    <path
       id="path3054"
       d="M 0,0 V 1023 H 1023 V 0 H 0 z M 480.62618,901.88639 119.5951,539.69644 208.67601,439.92995 451.50265,681.63769 799.52246,131.13581 911.5889,213.31148 480.62618,901.88639 z"
       inkscape:connector-curvature="0"
       style="fill:#000080" />
  </g>
</svg>
